:SAMPLES-PER-SECOND 30
:FULLY-SPECIFIED
:DEGREES
127
root  1.620193354 38.63022271 5.30326648 -8.075012207 -55.33100128 12.39099121
lowerback  15.94139957 6.210330009 6.957359791
upperback  5.7771101 9.132160187 3.925309896
thorax  -2.247580051 4.465939999 -1.288490057
lowerneck  7.65267992 -4.401400089 -6.604800224
upperneck  10.30210018 -6.040150166 -5.829100132
head  1.983500004 -3.381550074 -0.71676898
lclavicle  0 -9.442270133e-015 7.951389973e-016
lhumerus  -5.002260208 -15.82180023 79.62049866
lradius  1.757764148e-031 -3.062533141e-031 119.8539963
lwrist  -7.062250077e-031 7.062250077e-031 65.61759949
lhand  -1.496451383e-031 -27.76390076 20.11240005
lfingers  90 7.125020027 -90
lthumb  89.89689403 5.08795885 91.16245106
rclavicle  0 -9.442270133e-015 7.951389973e-016
rhumerus  41.37730026 1.252169967 -72.74620056
rradius  1.492530142e-031 3.200187153e-031 64.99620056
rwrist  7.062250077e-031 -0 -67.08170319
rhand  -7.920061211e-032 -33.2840004 9.303460121
rfingers  -90 -7.125020027 -90
rthumb  -92.93752616 -24.25625642 -97.11982154
rfemur  4.354370117 11.69709969 2.50406003
rtibia  -0 0 47.84500122
rfoot  -4.494047058e-032 -10.8366003 -2.529309988
rtoes  5.373923086 19.29304026 -105.8922705
lfemur  -43.54050064 -11.85820007 -13.99639988
ltibia  -0 0 52.81069946
lfoot  4.415156921e-032 1.363759995 -1.682590008
ltoes  -4.250644065 -19.5611806 -102.515957
128
root  1.766908826 38.40133186 5.156622158 -9.28302002 -53.88200378 13.48999023
lowerback  15.74009991 6.148600101 6.386129856
upperback  5.688739777 8.969929695 3.815340042
thorax  -2.319849968 4.386499882 -1.060369968
lowerneck  7.848659992 -4.623439789 -7.007009983
upperneck  10.48349953 -6.401120186 -5.185679913
head  2.049900055 -3.568150043 -0.4502870142
lclavicle  0 -9.442270133e-015 7.951389973e-016
lhumerus  -5.533370018 -16.08139992 78.95120239
lradius  1.794782955e-031 -3.040986383e-031 120.5490036
lwrist  -7.062250077e-031 3.531125038e-031 64.81269836
lhand  -1.496451383e-031 -27.76390076 20.11240005
lfingers  90 7.125020027 -90
lthumb  89.89689403 5.08795885 91.16245106
rclavicle  0 -9.442270133e-015 7.951389973e-016
rhumerus  40.60879898 1.337700009 -72.18049622
rradius  1.499943357e-031 3.19671925e-031 64.86340332
rwrist  7.062250077e-031 -0 -66.29389954
rhand  -7.920061211e-032 -33.2840004 9.303460121
rfingers  -90 -7.125020027 -90
rthumb  -92.93752616 -24.25625642 -97.11982154
rfemur  3.862900019 12.23589993 2.554519892
rtibia  -0 0 48.9280014
rfoot  -6.785133989e-032 -12.6335001 -2.862979889
rtoes  5.373923086 19.29304026 -105.8922705
lfemur  -43.10720062 -11.48869991 -15.01659966
ltibia  -0 0 56.34999847
lfoot  5.517500215e-032 0.3736749887 -0.8926990032
ltoes  -4.250644065 -19.5611806 -102.515957
129
root  1.928426713 38.14599946 5.016088861 -10.37298584 -52.40799713 14.42102051
lowerback  15.61810017 6.026619911 5.874350071
upperback  5.610459805 8.741629601 3.687319994
thorax  -2.411119938 4.273859978 -0.8793150187
lowerneck  7.836890221 -4.831840038 -7.293540001
upperneck  10.74499989 -6.703569889 -4.772210121
head  2.169490099 -3.731770039 -0.2820610106
lclavicle  0 -9.442270133e-015 7.951389973e-016
lhumerus  -6.200769901 -16.27910042 78.38330078
lradius  1.827530911e-031 -3.021419336e-031 121.1679993
lwrist  -7.062250077e-031 -0 63.90890121
lhand  -1.496451383e-031 -27.76390076 20.11240005
lfingers  90 7.125020027 -90
lthumb  89.89689403 5.08795885 91.16245106
rclavicle  0 -9.442270133e-015 7.951389973e-016
rhumerus  39.51789856 1.400560021 -71.79679871
rradius  1.500016146e-031 3.196685095e-031 64.86209869
rwrist  7.062250077e-031 7.062250077e-031 -65.59850311
rhand  -7.920061211e-032 -33.2840004 9.303460121
rfingers  -90 -7.125020027 -90
rthumb  -92.93752616 -24.25625642 -97.11982154
rfemur  3.676929951 12.22809982 2.402359962
rtibia  -0 0 50.54050064
rfoot  -4.596254446e-032 -16.19319916 -3.285209894
rtoes  5.373923086 19.29304026 -105.8922705
lfemur  -42.5603981 -11.41429996 -15.76910019
ltibia  -0 0 59.59840012
lfoot  4.965893949e-032 -0.5741919875 0.7815619707
ltoes  -4.250644065 -19.5611806 -102.515957
130
root  2.084248836 37.96555527 4.87053338 -11.08197021 -51.2250061 14.93103027
lowerback  15.66139984 5.983200073 5.569980145
upperback  5.482749939 8.659219742 3.530889988
thorax  -2.596149921 4.230269909 -0.8809170127
lowerneck  7.822889805 -5.063930035 -7.42565012
upperneck  10.93130016 -7.028840065 -4.41587019
head  2.259079933 -3.898159981 -0.154648006
lclavicle  0 -9.442270133e-015 7.951389973e-016
lhumerus  -6.982729912 -16.56550026 77.81970215
lradius  1.859751414e-031 -3.001694308e-031 121.7809982
lwrist  -3.531125038e-031 1.059337512e-030 63.08620071
lhand  -1.496451383e-031 -27.76390076 20.11240005
lfingers  90 7.125020027 -90
lthumb  89.89689403 5.08795885 91.16245106
rclavicle  0 -9.442270133e-015 7.951389973e-016
rhumerus  38.04589844 1.265660048 -71.6312027
rradius  1.493278387e-031 3.199838074e-031 64.98280334
rwrist  3.531125038e-031 7.062250077e-031 -64.96679688
rhand  -7.920061211e-032 -33.2840004 9.303460121
rfingers  -90 -7.125020027 -90
rthumb  -92.93752616 -24.25625642 -97.11982154
rfemur  3.66395998 11.61480045 2.266530037
rtibia  -0 0 52.68299866
rfoot  -9.097391373e-032 -13.9829998 -5.398880005
rtoes  5.373923086 19.29304026 -105.8922705
lfemur  -41.70330048 -11.2269001 -16.05820084
ltibia  -0 0 62.32960129
lfoot  6.623611935e-032 -1.651839972 3.006429911
ltoes  -4.250644065 -19.5611806 -102.515957
